<svg stroke="currentColor"
      fill="none"
      strokeWidth="0"
      viewBox="0 0 24 24"
      name="grid"
      height="20px" 
      width="20px" 
      xmlns="http://www.w3.org/2000/svg">
      
    <path      
      d="M19 3.32h-3a2 2 0 00-2 2v3a2 2 0 002 2h3a2 2 0 002-2v-3a2 2 0 00-2-2zM8 3.32H5a2 2 0 00-2 2v3a2 2 0 002 2h3a2 2 0 002-2v-3a2 2 0 00-2-2zM19 14.32h-3a2 2 0 00-2 2v3a2 2 0 002 2h3a2 2 0 002-2v-3a2 2 0 00-2-2zM8 14.32H5a2 2 0 00-2 2v3a2 2 0 002 2h3a2 2 0 002-2v-3a2 2 0 00-2-2z"
    ></path>
  </svg>
